<svg width="34" height="34" viewBox="0 0 34 34" fill="none" xmlns="http://www.w3.org/2000/svg">
<g id="Group">
<path id="Vector" d="M11.2616 19.5H4.80331C3.94763 19.5048 3.12865 19.8481 2.52531 20.4549C1.92196 21.0617 1.5833 21.8826 1.58331 22.7383V29.1966C1.58331 30.0506 1.92256 30.8697 2.52643 31.4735C3.1303 32.0774 3.94932 32.4166 4.80331 32.4166H11.2616C12.1172 32.4167 12.9379 32.0779 13.5444 31.4746C14.151 30.8712 14.4939 30.0522 14.4983 29.1966V22.7383C14.4983 21.8799 14.1573 21.0566 13.5503 20.4496C12.9433 19.8427 12.1201 19.5016 11.2616 19.5016M11.2616 1.58331H4.80331C4.38046 1.58331 3.96174 1.6666 3.57107 1.82842C3.1804 1.99024 2.82543 2.22742 2.52643 2.52643C2.22742 2.82543 1.99024 3.1804 1.82842 3.57107C1.6666 3.96174 1.58331 4.38046 1.58331 4.80331V11.2616C1.5833 12.1172 1.92202 12.9379 2.52541 13.5444C3.1288 14.151 3.94779 14.4939 4.80331 14.4983H11.2616C12.1201 14.4983 12.9433 14.1573 13.5503 13.5503C14.1573 12.9433 14.4983 12.1201 14.4983 11.2616V4.80331C14.4939 3.94779 14.151 3.1288 13.5444 2.52541C12.9379 1.92202 12.1172 1.5833 11.2616 1.58331ZM29.1966 1.58331H22.7383C21.8828 1.5833 21.062 1.92202 20.4555 2.52541C19.849 3.1288 19.5061 3.94779 19.5016 4.80331V11.2616C19.5021 12.1199 19.8432 12.9429 20.4501 13.5498C21.057 14.1567 21.88 14.4979 22.7383 14.4983H29.1966C30.0522 14.4939 30.8712 14.151 31.4746 13.5444C32.0779 12.9379 32.4167 12.1172 32.4166 11.2616V4.80331C32.4166 3.94932 32.0774 3.1303 31.4735 2.52643C30.8697 1.92256 30.0506 1.58331 29.1966 1.58331Z" stroke="white" stroke-width="3" stroke-linecap="round" stroke-linejoin="round"/>
<path id="Vector_2" d="M25.9467 20.0283V31.8883M20.0283 25.9717H31.8883" stroke="white" stroke-width="3" stroke-miterlimit="10" stroke-linecap="round"/>
</g>
</svg>
