<svg width="112" height="112" viewBox="0 0 112 112" fill="none" xmlns="http://www.w3.org/2000/svg">
<g id="Group">
<path id="Vector" d="M37.3504 64.125H16.3608C13.5799 64.1407 10.9182 65.2565 8.9573 67.2285C6.99642 69.2006 5.89577 71.8686 5.89581 74.6496V95.6391C5.89581 98.4146 6.99837 101.076 8.96094 103.039C10.9235 105.002 13.5853 106.104 16.3608 106.104H37.3504C40.1309 106.104 42.7983 105.003 44.7695 103.042C46.7407 101.081 47.8552 98.4196 47.8696 95.6391V74.6496C47.8696 71.8597 46.7613 69.1841 44.7886 67.2114C42.8158 65.2387 40.1403 64.1304 37.3504 64.1304M37.3504 5.89581H16.3608C14.9865 5.89581 13.6257 6.1665 12.356 6.69241C11.0864 7.21833 9.93271 7.98918 8.96094 8.96094C7.98918 9.93271 7.21833 11.0864 6.69241 12.356C6.1665 13.6257 5.89581 14.9865 5.89581 16.3608V37.3504C5.89578 40.1309 6.9966 42.7983 8.95763 44.7695C10.9187 46.7407 13.5804 47.8552 16.3608 47.8696H37.3504C40.1403 47.8696 42.8158 46.7613 44.7886 44.7886C46.7613 42.8158 47.8696 40.1403 47.8696 37.3504V16.3608C47.8552 13.5804 46.7407 10.9187 44.7695 8.95763C42.7983 6.9966 40.1309 5.89578 37.3504 5.89581ZM95.6391 5.89581H74.6496C71.8691 5.89578 69.2017 6.9966 67.2305 8.95763C65.2593 10.9187 64.1447 13.5804 64.1304 16.3608V37.3504C64.1318 40.1398 65.2406 42.8146 67.213 44.787C69.1854 46.7594 71.8601 47.8681 74.6496 47.8696H95.6391C98.4196 47.8552 101.081 46.7407 103.042 44.7695C105.003 42.7983 106.104 40.1309 106.104 37.3504V16.3608C106.104 13.5853 105.002 10.9235 103.039 8.96094C101.076 6.99837 98.4146 5.89581 95.6391 5.89581Z" stroke="#EADDFF" stroke-width="10" stroke-linecap="round" stroke-linejoin="round"/>
<path id="Vector_2" d="M85.0766 65.842V104.387M65.842 85.1579H104.387" stroke="#EADDFF" stroke-width="10" stroke-miterlimit="10" stroke-linecap="round"/>
</g>
</svg>
