<svg width="30" height="30" viewBox="0 0 30 30" fill="none" xmlns="http://www.w3.org/2000/svg">
<g id="home-svgrepo-com (1) 1" clip-path="url(#clip0_8_25)">
<path id="Vector" d="M29.4731 11.7924L25.7194 8.73305V3.84037C25.7194 3.28941 25.2711 2.8411 24.7201 2.8411H22.3582C21.8073 2.8411 21.359 3.28941 21.359 3.84037V5.17911L16.3433 1.09129C15.9805 0.795693 15.5023 0.632812 14.9968 0.632812C14.4934 0.632812 14.0175 0.794694 13.6566 1.08875L0.526892 11.7923C-0.0696704 12.2784 -0.0338785 12.7018 0.0405215 12.9109C0.11474 13.1196 0.353746 13.4697 1.12009 13.4697H2.91796V27.5454C2.91796 28.55 3.733 29.3671 4.73481 29.3671H10.4125C11.4058 29.3671 12.1839 28.5669 12.1839 27.5454V21.7732C12.1839 21.2785 12.6386 20.828 13.1377 20.828H16.9531C17.429 20.828 17.8161 21.2521 17.8161 21.7732V27.5454C17.8161 28.5329 18.669 29.3671 19.6784 29.3671H25.2652C26.267 29.3671 27.0821 28.5499 27.0821 27.5454V13.4697H28.8799C29.6463 13.4697 29.8852 13.1196 29.9595 12.9109C30.0339 12.7018 30.0697 12.2784 29.4731 11.7924Z" fill="#A155B9"/>
</g>
<defs>
<clipPath id="clip0_8_25">
<rect width="30" height="30" fill="white"/>
</clipPath>
</defs>
</svg>
