<svg width="40" height="40" viewBox="0 0 40 40" fill="none" xmlns="http://www.w3.org/2000/svg">
<g id="icones adm">
<path id="Vector" d="M16.6667 13.3333V23.3333L24.5 28.1666L25.8334 26.1666L19.1667 22.1666V13.3333H16.6667Z" fill="#414141"/>
<path id="Vector_2" d="M29.8666 20C30.1179 21.6566 30.0071 23.3479 29.5419 24.9576C29.0768 26.5672 28.2683 28.0569 27.1722 29.3241C26.076 30.5913 24.7183 31.6059 23.1924 32.2981C21.6665 32.9902 20.0088 33.3434 18.3333 33.3334C11.8333 33.3334 6.66665 28.1667 6.66665 21.6667C6.66665 15.1667 11.8333 10 18.3333 10C19.5 10 20.6166 10.1667 21.6666 10.4834V7.05002C20.6 6.80002 19.4833 6.66669 18.3333 6.66669C9.99998 6.66669 3.33331 13.3334 3.33331 21.6667C3.33331 30 9.99998 36.6667 18.3333 36.6667C20.4461 36.6755 22.5368 36.2359 24.4672 35.3772C26.3976 34.5184 28.1239 33.2599 29.5321 31.6847C30.9402 30.1096 31.9983 28.2537 32.6363 26.2395C33.2743 24.2253 33.4778 22.0987 33.2333 20H29.8666Z" fill="#414141"/>
<path id="Vector_3" d="M33.3333 8.33331V3.33331H30V8.33331H25V11.6666H30V16.6666H33.3333V11.6666H38.3333V8.33331H33.3333Z" fill="#414141"/>
</g>
</svg>
