<svg width="40" height="40" viewBox="0 0 40 40" fill="none" xmlns="http://www.w3.org/2000/svg">
<g id="icones adm">
<path id="Vector" d="M10 17.5H17.5V40H10V17.5ZM12.5 37.5H15V20H12.5V37.5ZM20 22.5H27.5V40H20V22.5ZM22.5 37.5H25V25H22.5V37.5ZM0 27.5H7.5V40H0V27.5ZM2.5 37.5H5V30H2.5V37.5ZM30 12.5H37.5V40H30V12.5ZM32.5 37.5H35V15H32.5V37.5ZM27.1289 12.1289C27.3763 12.6628 27.5 13.2031 27.5 13.75C27.5 14.2708 27.4023 14.7591 27.207 15.2148C27.0117 15.6706 26.7448 16.0677 26.4062 16.4062C26.0677 16.7448 25.6706 17.0117 25.2148 17.207C24.7591 17.4023 24.2708 17.5 23.75 17.5C23.2292 17.5 22.7409 17.4023 22.2852 17.207C21.8294 17.0117 21.4323 16.7448 21.0938 16.4062C20.7552 16.0677 20.4883 15.6706 20.293 15.2148C20.0977 14.7591 20 14.2708 20 13.75V13.5156C20 13.4375 20.0065 13.3594 20.0195 13.2812L16.3477 11.4453C16.0091 11.7839 15.612 12.0443 15.1562 12.2266C14.7005 12.4089 14.2318 12.5 13.75 12.5C13.2031 12.5 12.6628 12.3763 12.1289 12.1289L7.12891 17.1289C7.3763 17.6628 7.5 18.2031 7.5 18.75C7.5 19.2708 7.40234 19.7591 7.20703 20.2148C7.01172 20.6706 6.74479 21.0677 6.40625 21.4062C6.06771 21.7448 5.67057 22.0117 5.21484 22.207C4.75911 22.4023 4.27083 22.5 3.75 22.5C3.22917 22.5 2.74089 22.4023 2.28516 22.207C1.82943 22.0117 1.43229 21.7448 1.09375 21.4062C0.755208 21.0677 0.488281 20.6706 0.292969 20.2148C0.0976562 19.7591 0 19.2708 0 18.75C0 18.2292 0.0976562 17.7409 0.292969 17.2852C0.488281 16.8294 0.755208 16.4323 1.09375 16.0938C1.43229 15.7552 1.82943 15.4883 2.28516 15.293C2.74089 15.0977 3.22917 15 3.75 15C4.29688 15 4.83724 15.1237 5.37109 15.3711L10.3711 10.3711C10.1237 9.83724 10 9.29688 10 8.75C10 8.22917 10.0977 7.74089 10.293 7.28516C10.4883 6.82943 10.7552 6.43229 11.0938 6.09375C11.4323 5.75521 11.8294 5.48828 12.2852 5.29297C12.7409 5.09766 13.2292 5 13.75 5C14.2708 5 14.7591 5.09766 15.2148 5.29297C15.6706 5.48828 16.0677 5.75521 16.4062 6.09375C16.7448 6.43229 17.0117 6.82943 17.207 7.28516C17.4023 7.74089 17.5 8.22917 17.5 8.75V8.98438C17.5 9.0625 17.4935 9.14062 17.4805 9.21875L21.1523 11.0547C21.4909 10.7161 21.888 10.4557 22.3438 10.2734C22.7995 10.0911 23.2682 10 23.75 10C24.2969 10 24.8372 10.1237 25.3711 10.3711L30.3711 5.37109C30.1237 4.83724 30 4.29688 30 3.75C30 3.22917 30.0977 2.74089 30.293 2.28516C30.4883 1.82943 30.7552 1.43229 31.0938 1.09375C31.4323 0.755208 31.8294 0.488281 32.2852 0.292969C32.7409 0.0976562 33.2292 0 33.75 0C34.2708 0 34.7591 0.0976562 35.2148 0.292969C35.6706 0.488281 36.0677 0.755208 36.4062 1.09375C36.7448 1.43229 37.0117 1.82943 37.207 2.28516C37.4023 2.74089 37.5 3.22917 37.5 3.75C37.5 4.27083 37.4023 4.75911 37.207 5.21484C37.0117 5.67057 36.7448 6.06771 36.4062 6.40625C36.0677 6.74479 35.6706 7.01172 35.2148 7.20703C34.7591 7.40234 34.2708 7.5 33.75 7.5C33.2031 7.5 32.6628 7.3763 32.1289 7.12891L27.1289 12.1289ZM3.75 20C4.08854 20 4.38151 19.8763 4.62891 19.6289C4.8763 19.3815 5 19.0885 5 18.75C5 18.4115 4.8763 18.1185 4.62891 17.8711C4.38151 17.6237 4.08854 17.5 3.75 17.5C3.41146 17.5 3.11849 17.6237 2.87109 17.8711C2.6237 18.1185 2.5 18.4115 2.5 18.75C2.5 19.0885 2.6237 19.3815 2.87109 19.6289C3.11849 19.8763 3.41146 20 3.75 20ZM33.75 2.5C33.4115 2.5 33.1185 2.6237 32.8711 2.87109C32.6237 3.11849 32.5 3.41146 32.5 3.75C32.5 4.08854 32.6237 4.38151 32.8711 4.62891C33.1185 4.8763 33.4115 5 33.75 5C34.0885 5 34.3815 4.8763 34.6289 4.62891C34.8763 4.38151 35 4.08854 35 3.75C35 3.41146 34.8763 3.11849 34.6289 2.87109C34.3815 2.6237 34.0885 2.5 33.75 2.5ZM13.75 10C14.0885 10 14.3815 9.8763 14.6289 9.62891C14.8763 9.38151 15 9.08854 15 8.75C15 8.41146 14.8763 8.11849 14.6289 7.87109C14.3815 7.6237 14.0885 7.5 13.75 7.5C13.4115 7.5 13.1185 7.6237 12.8711 7.87109C12.6237 8.11849 12.5 8.41146 12.5 8.75C12.5 9.08854 12.6237 9.38151 12.8711 9.62891C13.1185 9.8763 13.4115 10 13.75 10ZM23.75 15C24.0885 15 24.3815 14.8763 24.6289 14.6289C24.8763 14.3815 25 14.0885 25 13.75C25 13.4115 24.8763 13.1185 24.6289 12.8711C24.3815 12.6237 24.0885 12.5 23.75 12.5C23.4115 12.5 23.1185 12.6237 22.8711 12.8711C22.6237 13.1185 22.5 13.4115 22.5 13.75C22.5 14.0885 22.6237 14.3815 22.8711 14.6289C23.1185 14.8763 23.4115 15 23.75 15Z" fill="#414141"/>
</g>
</svg>
