<svg width="40" height="40" viewBox="0 0 40 40" fill="none" xmlns="http://www.w3.org/2000/svg">
<g id="icones adm" clip-path="url(#clip0_18_233)">
<path id="Vector" d="M24.1337 4.01248C23.9402 3.17727 23.4578 2.43727 22.7718 1.92306C22.0858 1.40884 21.2402 1.15347 20.3842 1.202C19.5283 1.25053 18.7169 1.59985 18.0934 2.18831C17.4699 2.77677 17.0743 3.56655 16.9764 4.41828C16.8785 5.27001 17.0846 6.12896 17.5583 6.84354C18.032 7.55812 18.7429 8.08241 19.5656 8.3239C20.3882 8.56538 21.2697 8.50854 22.0545 8.16339C22.8393 7.81825 23.477 7.20699 23.855 6.43748C26.1562 6.9615 28.2953 8.03743 30.088 9.57248C31.8807 11.1075 33.273 13.0556 34.145 15.2487L36.3637 14.3762C35.3367 11.775 33.6828 9.46778 31.5492 7.65973C29.4155 5.85169 26.8682 4.59881 24.1337 4.01248ZM20.6062 6.05998C20.4438 6.0652 20.282 6.03771 20.1304 5.97916C19.9788 5.9206 19.8405 5.83217 19.7238 5.71913C19.6071 5.60608 19.5142 5.47072 19.4509 5.32109C19.3875 5.17146 19.3548 5.01061 19.3548 4.8481C19.3548 4.6856 19.3875 4.52475 19.4509 4.37512C19.5142 4.22549 19.6071 4.09013 19.7238 3.97708C19.8405 3.86404 19.9788 3.77561 20.1304 3.71705C20.282 3.6585 20.4438 3.63101 20.6062 3.63623C20.9278 3.63623 21.2362 3.76397 21.4636 3.99136C21.691 4.21875 21.8187 4.52715 21.8187 4.84873C21.8187 5.1703 21.691 5.47871 21.4636 5.7061C21.2362 5.93349 20.9278 6.05998 20.6062 6.05998ZM15.2725 7.06748L14.3762 4.84998C11.775 5.87705 9.46777 7.5309 7.65973 9.66453C5.85169 11.7982 4.59881 14.3455 4.01248 17.08C3.17727 17.2735 2.43727 17.7559 1.92306 18.4419C1.40884 19.1279 1.15347 19.9735 1.202 20.8295C1.25053 21.6854 1.59985 22.4968 2.18831 23.1203C2.77677 23.7438 3.56655 24.1394 4.41828 24.2373C5.27001 24.3352 6.12896 24.1291 6.84354 23.6554C7.55812 23.1817 8.08241 22.4708 8.3239 21.6481C8.56538 20.8255 8.50853 19.944 8.16339 19.1592C7.81825 18.3744 7.20699 17.7367 6.43748 17.3587C6.96365 15.0548 8.04309 12.9137 9.58246 11.1206C11.1218 9.32755 13.0748 7.9364 15.2725 7.06748ZM4.84748 21.82C4.68825 21.82 4.53058 21.7886 4.38348 21.7277C4.23637 21.6668 4.1027 21.5774 3.99011 21.4648C3.87752 21.3523 3.78821 21.2186 3.72728 21.0715C3.66634 20.9244 3.63498 20.7667 3.63498 20.6075C3.63498 20.4483 3.66634 20.2906 3.72728 20.1435C3.78821 19.9964 3.87752 19.8627 3.99011 19.7501C4.1027 19.6375 4.23637 19.5482 4.38348 19.4873C4.53058 19.4263 4.68825 19.395 4.84748 19.395C5.16905 19.395 5.47746 19.5227 5.70485 19.7501C5.93223 19.9775 6.05998 20.2859 6.05998 20.6075C6.05998 20.9291 5.93223 21.2375 5.70485 21.4648C5.47746 21.6922 5.16905 21.82 4.84748 21.82ZM20.6062 32.7287C19.93 32.7309 19.2678 32.9216 18.6939 33.2793C18.12 33.637 17.6572 34.1476 17.3575 34.7537C15.0559 34.2298 12.9164 33.1537 11.1235 31.6185C9.3306 30.0832 7.93813 28.1347 7.06623 25.9412L4.84873 26.8375C5.87914 29.4431 7.53854 31.7532 9.67886 33.5615C11.8192 35.3699 14.3739 36.6203 17.115 37.2012C17.2724 37.8686 17.6153 38.4778 18.104 38.9587C18.5928 39.4396 19.2075 39.7726 19.8773 39.9192C20.5471 40.0659 21.2447 40.0202 21.8896 39.7876C22.5346 39.5549 23.1007 39.1446 23.5226 38.6042C23.9445 38.0637 24.2051 37.4149 24.2742 36.7328C24.3434 36.0506 24.2183 35.3628 23.9135 34.7486C23.6086 34.1345 23.1364 33.619 22.5512 33.2616C21.9661 32.9042 21.2918 32.7195 20.6062 32.7287ZM20.6062 37.5775C20.2847 37.5775 19.9762 37.4497 19.7489 37.2223C19.5215 36.995 19.3937 36.6866 19.3937 36.365C19.3937 36.0434 19.5215 35.735 19.7489 35.5076C19.9762 35.2802 20.2847 35.1525 20.6062 35.1525C20.9278 35.1525 21.2362 35.2802 21.4636 35.5076C21.691 35.735 21.8187 36.0434 21.8187 36.365C21.8187 36.6866 21.691 36.995 21.4636 37.2223C21.2362 37.4497 20.9278 37.5775 20.6062 37.5775ZM40 20.6062C40.0022 19.9572 39.8307 19.3194 39.5033 18.759C39.176 18.1986 38.7046 17.736 38.1382 17.4192C37.5718 17.1023 36.9309 16.9428 36.282 16.9572C35.6331 16.9716 34.9999 17.1593 34.4481 17.5008C33.8962 17.8424 33.4458 18.3254 33.1435 18.8998C32.8413 19.4741 32.6982 20.1189 32.7291 20.7672C32.7601 21.4154 32.9639 22.0436 33.3194 22.5866C33.675 23.1296 34.1694 23.5675 34.7512 23.855C34.2271 26.1563 33.151 28.2956 31.6157 30.0882C30.0804 31.8809 28.1321 33.2732 25.9387 34.145L26.8362 36.3637C29.4419 35.3333 31.7519 33.6739 33.5603 31.5336C35.3686 29.3933 36.6191 26.8386 37.2 24.0975C37.989 23.9109 38.6931 23.466 39.2004 22.8334C39.7077 22.2009 39.9891 21.417 40 20.6062ZM36.3625 21.8187C36.0409 21.8187 35.7325 21.691 35.5051 21.4636C35.2777 21.2362 35.15 20.9278 35.15 20.6062C35.15 20.2847 35.2777 19.9762 35.5051 19.7489C35.7325 19.5215 36.0409 19.3937 36.3625 19.3937C36.6841 19.3937 36.9925 19.5215 37.2198 19.7489C37.4472 19.9762 37.575 20.2847 37.575 20.6062C37.575 20.9278 37.4472 21.2362 37.2198 21.4636C36.9925 21.691 36.6841 21.8187 36.3625 21.8187Z" fill="#414141"/>
<path id="Vector_2" d="M23.9875 20.4375C24.6771 19.7641 25.1504 18.9004 25.3469 17.9567C25.5434 17.013 25.4542 16.0322 25.0906 15.1395C24.7271 14.2468 24.1057 13.4827 23.3058 12.9448C22.5059 12.4069 21.5639 12.1196 20.6 12.1196C19.6361 12.1196 18.694 12.4069 17.8942 12.9448C17.0943 13.4827 16.4729 14.2468 16.1093 15.1395C15.7458 16.0322 15.6566 17.013 15.853 17.9567C16.0495 18.9004 16.5228 19.7641 17.2125 20.4375C16.3918 20.9922 15.7195 21.7397 15.2545 22.6144C14.7894 23.4891 14.5458 24.4644 14.545 25.455V27.8787H26.6662V25.4538C26.6641 24.4621 26.4188 23.4861 25.9518 22.6114C25.4848 21.7366 24.8103 20.991 23.9875 20.4375ZM18.1812 16.9687C18.1812 16.6503 18.244 16.335 18.3658 16.0407C18.4877 15.7465 18.6663 15.4792 18.8915 15.254C19.1167 15.0288 19.384 14.8502 19.6782 14.7283C19.9724 14.6065 20.2878 14.5437 20.6062 14.5437C20.9247 14.5437 21.24 14.6065 21.5342 14.7283C21.8285 14.8502 22.0958 15.0288 22.321 15.254C22.5461 15.4792 22.7248 15.7465 22.8466 16.0407C22.9685 16.335 23.0312 16.6503 23.0312 16.9687C23.0312 17.6119 22.7757 18.2287 22.321 18.6835C21.8662 19.1383 21.2494 19.3937 20.6062 19.3937C19.9631 19.3937 19.3463 19.1383 18.8915 18.6835C18.4367 18.2287 18.1812 17.6119 18.1812 16.9687ZM16.9687 25.4538C16.9598 24.9705 17.0472 24.4903 17.226 24.0412C17.4047 23.5921 17.6712 23.1831 18.0098 22.8382C18.3484 22.4932 18.7523 22.2192 19.198 22.0322C19.6437 21.8452 20.1223 21.7488 20.6056 21.7488C21.089 21.7488 21.5675 21.8452 22.0132 22.0322C22.4589 22.2192 22.8628 22.4932 23.2014 22.8382C23.54 23.1831 23.8065 23.5921 23.9852 24.0412C24.164 24.4903 24.2514 24.9705 24.2425 25.4538H16.9687Z" fill="#414141"/>
</g>
<defs>
<clipPath id="clip0_18_233">
<rect width="40" height="40" fill="white"/>
</clipPath>
</defs>
</svg>
