<svg width="46" height="46" viewBox="0 0 46 46" fill="none" xmlns="http://www.w3.org/2000/svg">
<g id="User images/User Images">
<rect width="46" height="46" rx="23" fill="#DBD42D"/>
<g id="Avatar Placeholder">
<path fill-rule="evenodd" clip-rule="evenodd" d="M29.9003 18.4C29.9003 22.2108 26.811 25.3 23.0003 25.3C19.1895 25.3 16.1003 22.2108 16.1003 18.4C16.1003 14.5892 19.1895 11.5 23.0003 11.5C26.811 11.5 29.9003 14.5892 29.9003 18.4ZM27.6003 18.4C27.6003 20.9405 25.5408 23 23.0003 23C20.4598 23 18.4003 20.9405 18.4003 18.4C18.4003 15.8595 20.4598 13.8 23.0003 13.8C25.5408 13.8 27.6003 15.8595 27.6003 18.4Z" fill="#6750A4"/>
<path d="M23.0003 28.75C15.5547 28.75 9.21095 33.1527 6.79443 39.3208C7.38311 39.9054 8.00324 40.4583 8.65206 40.9769C10.4515 35.3138 16.0965 31.05 23.0003 31.05C29.9041 31.05 35.5491 35.3139 37.3485 40.9769C37.9973 40.4583 38.6175 39.9054 39.2061 39.3209C36.7896 33.1527 30.4458 28.75 23.0003 28.75Z" fill="#6750A4"/>
</g>
</g>
</svg>
