<svg width="24" height="25" viewBox="0 0 24 25" fill="none" xmlns="http://www.w3.org/2000/svg">
<path id=" &#226;&#134;&#179;Color" fill-rule="evenodd" clip-rule="evenodd" d="M17.1527 15.5943H16.0686L15.6844 15.2238C17.0292 13.6595 17.8388 11.6286 17.8388 9.41938C17.8388 4.49314 13.8456 0.5 8.91938 0.5C3.99314 0.5 0 4.49314 0 9.41938C0 14.3456 3.99314 18.3388 8.91938 18.3388C11.1286 18.3388 13.1595 17.5292 14.7238 16.1844L15.0943 16.5686V17.6527L21.9554 24.5L24 22.4554L17.1527 15.5943ZM8.91952 15.5943C5.50271 15.5943 2.74456 12.8361 2.74456 9.41932C2.74456 6.00251 5.50271 3.24436 8.91952 3.24436C12.3363 3.24436 15.0945 6.00251 15.0945 9.41932C15.0945 12.8361 12.3363 15.5943 8.91952 15.5943Z" fill="#6750A4"/>
</svg>
